<?xml version="1.0" encoding="UTF-8"?><svg id="_레이어_1" xmlns="http://www.w3.org/2000/svg" viewBox="0 0 114.52 116.87"><defs><style>.cls-1{fill:#5979b3;}.cls-1,.cls-2,.cls-3,.cls-4{fill-rule:evenodd;}.cls-2{fill:#eabd1b;}.cls-3{fill:#48a544;}.cls-4{fill:#cb2b2b;}</style></defs><path class="cls-4" d="M6.3,32.23c2.38-5.24,5.75-9.82,9.7-13.96C24.94,8.91,35.76,2.91,48.57,.86c17.93-2.86,33.98,1.36,47.84,13.3,.88,.75,1.09,1.2,.14,2.13-4.89,4.79-9.71,9.66-14.56,14.51-.5,.5-.83,1.1-1.72,.29-12.21-11.19-32.14-11.06-45.11,1.01-4.45,4.14-7.62,9.11-9.69,14.8-.3-.2-.62-.37-.91-.59-6.09-4.69-12.18-9.38-18.27-14.07Z"/><path class="cls-3" d="M25.33,69.75c1.75,4.44,3.92,8.65,7.16,12.22,8.22,9.08,18.41,12.99,30.61,11.73,5.67-.59,10.84-2.51,15.67-5.46,.46,.41,.9,.86,1.39,1.24,5.65,4.41,11.31,8.81,16.96,13.22-6.24,5.92-13.6,9.87-21.88,11.96-19.53,4.94-37.53,1.82-53.52-10.8-6.61-5.22-11.81-11.66-15.47-19.28,6.36-4.94,12.72-9.88,19.08-14.82Z"/><path class="cls-1" d="M97.12,102.68c-5.66-4.4-11.31-8.81-16.96-13.22-.49-.38-.93-.82-1.39-1.24,3.83-2.92,7.02-6.38,9.12-10.77,.84-1.75,1.42-3.58,1.98-5.44,.38-1.28,.26-1.77-1.32-1.76-9.41,.08-18.83,.04-28.24,.04q-1.99,0-2-2.06c0-6.38,.03-12.76-.03-19.14-.01-1.23,.2-1.7,1.59-1.7,17.36,.05,34.73,.04,52.09,.02,.94,0,1.53,.07,1.69,1.21,2.16,15.19,.43,29.69-7.52,43.1-2.43,4.1-5.36,7.85-9.02,10.97Z"/><path class="cls-2" d="M25.33,69.75c-6.36,4.94-12.72,9.88-19.08,14.82-3.11-5.78-4.9-11.98-5.73-18.44-1.45-11.2,.14-21.97,4.89-32.24,.26-.56,.59-1.1,.89-1.64,6.09,4.69,12.18,9.38,18.27,14.07,.29,.22,.6,.4,.91,.59-2.55,7.6-2.42,15.22-.14,22.85Z"/></svg>