<?xml version="1.0" encoding="UTF-8"?><svg id="_레이어_1" xmlns="http://www.w3.org/2000/svg" xmlns:xlink="http://www.w3.org/1999/xlink" viewBox="0 0 122.4 122.4"><defs><style>.cls-1{fill:#efd925;}.cls-2{clip-path:url(#clippath-11);}.cls-3{clip-path:url(#clippath-2);}.cls-4{fill:#371e1e;}.cls-5{clip-path:url(#clippath);}.cls-6{fill:none;}.cls-7{clip-path:url(#clippath-8);}.cls-8{mask:url(#mask);}.cls-9{clip-path:url(#clippath-5);}</style><clipPath id="clippath"><circle class="cls-6" cx="61.11" cy="61.4" r="61"/></clipPath><filter id="luminosity-noclip-2" x="8252.5" y="-8252.48" width="-32766" height="32766" color-interpolation-filters="sRGB" filterUnits="userSpaceOnUse"><feFlood flood-color="#fff" result="bg"/><feBlend in="SourceGraphic" in2="bg"/></filter><mask id="mask" x="8252.5" y="-8252.48" width="-32766" height="32766" maskUnits="userSpaceOnUse"/><clipPath id="clippath-2"><path class="cls-1" d="M30.33,47.05c-2.72,0-2.71,4.77,0,4.77h4.64s.03,12.91,0,15.87c0,2.16,4.83,2.28,4.82,.11l.02-15.53s1.56-.34,4.62-.34c2.88,0,2.89-4.89,0-4.89h-14.11Z"/></clipPath><clipPath id="clippath-5"><path class="cls-1" d="M53.11,53l2.58,8.09h-5.38l2.8-8.09Zm-2.89-3.79c-1.14,2.51-5.27,14.39-6.64,17.54-.99,2.28,3.28,4.13,4.27,1.85l.92-3.25h8.49s-.29,.13,.84,3.11c.91,2.41,5.32,.74,4.41-1.67-1.3-3.44-5.81-15.83-6.63-17.58-.38-.81-1.74-1.39-3.06-1.39-1.09,0-2.15,.4-2.6,1.39"/></clipPath><clipPath id="clippath-8"><path class="cls-1" d="M64.33,49.93c0,4.03,.02,17.04,.02,17.04,0,0-.37,2.59,1.84,2.59s7.13-.02,9.31-.02,2.17-4.64-.01-4.64-6.16-.02-6.16-.02c0,0,.02-12.03,.01-14.95,0-1.41-1.25-2.12-2.51-2.12s-2.52,.71-2.51,2.13"/></clipPath><clipPath id="clippath-11"><path class="cls-1" d="M78.46,49.29c.05,1.77-.06,17.76-.06,18.95,0,1.87,4.76,1.86,4.76,0,0-2.17,0-6.29,0-6.29l1.4-1.12,6.12,8.34c1.23,1.63,5.12-1.31,3.89-2.95l-6.49-8.55s4.41-4.77,6.15-6.5c1.01-1.01-2.12-4.17-3.14-3.16-.98,.97-7.88,7.88-7.88,7.88,0,0,.06-4.34,0-6.74-.02-.91-1.14-1.35-2.29-1.35-1.22,0-2.48,.51-2.45,1.48"/></clipPath></defs><g class="cls-5"><g class="cls-8"><rect class="cls-1" width="122.4" height="122.4" rx="9.8" ry="9.8"/></g></g><g><path class="cls-4" d="M61.55,23.07c-24.59,0-44.51,15.76-44.51,35.19,0,12.65,8.44,23.74,21.12,29.94-.93,3.48-3.37,12.59-3.86,14.54-.6,2.42,.89,2.39,1.86,1.74,.76-.51,12.2-8.28,17.13-11.64,2.68,.4,5.44,.61,8.26,.61,24.58,0,44.51-15.75,44.51-35.19S86.14,23.07,61.55,23.07"/><g><g><path class="cls-1" d="M30.33,47.05c-2.72,0-2.71,4.77,0,4.77h4.64s.03,12.91,0,15.87c0,2.16,4.83,2.28,4.82,.11l.02-15.53s1.56-.34,4.62-.34c2.88,0,2.89-4.89,0-4.89h-14.11Z"/><g class="cls-3"><rect class="cls-1" x="27.6" y="47.05" width="19.72" height="22.92"/></g></g><g><path class="cls-1" d="M53.11,53l2.58,8.09h-5.38l2.8-8.09Zm-2.89-3.79c-1.14,2.51-5.27,14.39-6.64,17.54-.99,2.28,3.28,4.13,4.27,1.85l.92-3.25h8.49s-.29,.13,.84,3.11c.91,2.41,5.32,.74,4.41-1.67-1.3-3.44-5.81-15.83-6.63-17.58-.38-.81-1.74-1.39-3.06-1.39-1.09,0-2.15,.4-2.6,1.39"/><g class="cls-9"><rect class="cls-1" x="42.6" y="47.82" width="20.83" height="23.06"/></g></g><g><path class="cls-1" d="M64.33,49.93c0,4.03,.02,17.04,.02,17.04,0,0-.37,2.59,1.84,2.59s7.13-.02,9.31-.02,2.17-4.64-.01-4.64-6.16-.02-6.16-.02c0,0,.02-12.03,.01-14.95,0-1.41-1.25-2.12-2.51-2.12s-2.52,.71-2.51,2.13"/><g class="cls-7"><rect class="cls-1" x="63.98" y="47.8" width="13.71" height="21.75"/></g></g><g><path class="cls-1" d="M78.46,49.29c.05,1.77-.06,17.76-.06,18.95,0,1.87,4.76,1.86,4.76,0,0-2.17,0-6.29,0-6.29l1.4-1.12,6.12,8.34c1.23,1.63,5.12-1.31,3.89-2.95l-6.49-8.55s4.41-4.77,6.15-6.5c1.01-1.01-2.12-4.17-3.14-3.16-.98,.97-7.88,7.88-7.88,7.88,0,0,.06-4.34,0-6.74-.02-.91-1.14-1.35-2.29-1.35-1.22,0-2.48,.51-2.45,1.48"/><g class="cls-2"><rect class="cls-1" x="78.41" y="47.01" width="17.4" height="23.79"/></g></g></g></g></svg>